<?xml version="1.0" encoding="UTF-8" standalone="no"?>
<!DOCTYPE svg PUBLIC "-//W3C//DTD SVG 1.1//EN"
 "http://www.w3.org/Graphics/SVG/1.1/DTD/svg11.dtd">
<!-- Generated by graphviz version 2.43.0 (0)
 -->
<!-- Title: g Pages: 1 -->
<svg width="2332pt" height="647pt"
 viewBox="0.00 0.00 2332.00 646.50" xmlns="http://www.w3.org/2000/svg" xmlns:xlink="http://www.w3.org/1999/xlink">
<g id="graph0" class="graph" transform="scale(1 1) rotate(0) translate(4 642.5)">
<title>g</title>
<polygon fill="white" stroke="transparent" points="-4,4 -4,-642.5 2328,-642.5 2328,4 -4,4"/>
<!-- _sqlx_migrations -->
<g id="node1" class="node">
<title>_sqlx_migrations</title>
<text text-anchor="start" x="49" y="-97" font-family="Times,serif" font-size="10.00"> </text>
<polygon fill="#e5e5e5" stroke="transparent" points="55,-91 55,-108 154,-108 154,-91 55,-91"/>
<polygon fill="none" stroke="black" points="55,-91 55,-108 154,-108 154,-91 55,-91"/>
<text text-anchor="start" x="58" y="-97" font-family="Times,serif" font-size="10.00"> _sqlx_migrations </text>
<text text-anchor="start" x="57" y="-81" font-family="Times,serif" font-size="10.00"> version </text>
<text text-anchor="start" x="107" y="-81" font-family="Times,serif" font-size="10.00"> &#160;</text>
<text text-anchor="start" x="119" y="-81" font-family="Times,serif" font-size="10.00"> PK </text>
<text text-anchor="start" x="144" y="-81" font-family="Times,serif" font-size="10.00"> &#160;</text>
<text text-anchor="start" x="156" y="-81" font-family="Times,serif" font-size="10.00"> </text>
<polygon fill="none" stroke="black" points="45.5,-75 45.5,-109 162.5,-109 162.5,-75 45.5,-75"/>
</g>
<!-- action_categories -->
<g id="node2" class="node">
<title>action_categories</title>
<text text-anchor="start" x="1502.5" y="-188" font-family="Times,serif" font-size="10.00"> </text>
<polygon fill="#e5e5e5" stroke="transparent" points="1508.5,-182 1508.5,-199 1675.5,-199 1675.5,-182 1508.5,-182"/>
<polygon fill="none" stroke="black" points="1508.5,-182 1508.5,-199 1675.5,-199 1675.5,-182 1508.5,-182"/>
<text text-anchor="start" x="1544.5" y="-188" font-family="Times,serif" font-size="10.00"> action_categories </text>
<text text-anchor="start" x="1510.5" y="-172" font-family="Times,serif" font-size="10.00"> action_category_id </text>
<text text-anchor="start" x="1616.5" y="-172" font-family="Times,serif" font-size="10.00"> &#160;</text>
<text text-anchor="start" x="1627.5" y="-172" font-family="Times,serif" font-size="10.00"> PK </text>
<text text-anchor="start" x="1652.5" y="-172" font-family="Times,serif" font-size="10.00"> FK </text>
<text text-anchor="start" x="1677.5" y="-172" font-family="Times,serif" font-size="10.00"> </text>
<polygon fill="none" stroke="black" points="1499,-166 1499,-200 1684,-200 1684,-166 1499,-166"/>
</g>
<!-- object_ids -->
<g id="node10" class="node">
<title>object_ids</title>
<text text-anchor="start" x="2185" y="-188" font-family="Times,serif" font-size="10.00"> </text>
<polygon fill="#e5e5e5" stroke="transparent" points="2191,-182 2191,-199 2294,-199 2294,-182 2191,-182"/>
<polygon fill="none" stroke="black" points="2191,-182 2191,-199 2294,-199 2294,-182 2191,-182"/>
<text text-anchor="start" x="2213.5" y="-188" font-family="Times,serif" font-size="10.00"> object_ids </text>
<text text-anchor="start" x="2193" y="-172" font-family="Times,serif" font-size="10.00"> object_id </text>
<text text-anchor="start" x="2249" y="-172" font-family="Times,serif" font-size="10.00"> &#160;</text>
<text text-anchor="start" x="2260" y="-172" font-family="Times,serif" font-size="10.00"> PK </text>
<text text-anchor="start" x="2285" y="-172" font-family="Times,serif" font-size="10.00"> &#160;</text>
<text text-anchor="start" x="2296" y="-172" font-family="Times,serif" font-size="10.00"> </text>
<polygon fill="none" stroke="black" points="2181.5,-166 2181.5,-200 2302.5,-200 2302.5,-166 2181.5,-166"/>
</g>
<!-- action_categories&#45;&gt;object_ids -->
<g id="edge1" class="edge">
<title>action_categories:rtcol0&#45;&gt;object_ids:ltcol0</title>
<path fill="none" stroke="black" d="M1684.5,-191C1902.16,-191 1959.12,-191 2171.76,-191"/>
<polygon fill="black" stroke="black" points="2172,-194.5 2182,-191 2172,-187.5 2172,-194.5"/>
<text text-anchor="middle" x="1960" y="-194.8" font-family="Times,serif" font-size="14.00">action_categories_action_category_id_fkey</text>
</g>
<!-- actions -->
<g id="node3" class="node">
<title>actions</title>
<text text-anchor="start" x="948.5" y="-148" font-family="Times,serif" font-size="10.00"> </text>
<polygon fill="#e5e5e5" stroke="transparent" points="954.5,-142 954.5,-159 1121.5,-159 1121.5,-142 954.5,-142"/>
<polygon fill="none" stroke="black" points="954.5,-142 954.5,-159 1121.5,-159 1121.5,-142 954.5,-142"/>
<text text-anchor="start" x="1016.5" y="-148" font-family="Times,serif" font-size="10.00"> actions </text>
<text text-anchor="start" x="956.5" y="-132" font-family="Times,serif" font-size="10.00"> action_category_id </text>
<text text-anchor="start" x="1062.5" y="-132" font-family="Times,serif" font-size="10.00"> &#160;</text>
<text text-anchor="start" x="1073.5" y="-132" font-family="Times,serif" font-size="10.00"> &#160;</text>
<text text-anchor="start" x="1098.5" y="-132" font-family="Times,serif" font-size="10.00"> FK </text>
<text text-anchor="start" x="1123.5" y="-132" font-family="Times,serif" font-size="10.00"> </text>
<text text-anchor="start" x="956.5" y="-117" font-family="Times,serif" font-size="10.00"> action_id </text>
<text text-anchor="start" x="1062.5" y="-117" font-family="Times,serif" font-size="10.00"> &#160;</text>
<text text-anchor="start" x="1073.5" y="-117" font-family="Times,serif" font-size="10.00"> PK </text>
<text text-anchor="start" x="1098.5" y="-117" font-family="Times,serif" font-size="10.00"> FK </text>
<text text-anchor="start" x="1123.5" y="-117" font-family="Times,serif" font-size="10.00"> </text>
<polygon fill="none" stroke="black" points="945,-111.5 945,-160.5 1130,-160.5 1130,-111.5 945,-111.5"/>
</g>
<!-- actions&#45;&gt;action_categories -->
<g id="edge2" class="edge">
<title>actions:rtcol0&#45;&gt;action_categories:ltcol0</title>
<path fill="none" stroke="black" d="M1130.5,-151C1291.92,-151 1332.8,-189.3 1489.04,-190.95"/>
<polygon fill="black" stroke="black" points="1489.48,-194.45 1499.5,-191 1489.52,-187.45 1489.48,-194.45"/>
<text text-anchor="middle" x="1283" y="-188.8" font-family="Times,serif" font-size="14.00">actions_action_category_id_fkey</text>
</g>
<!-- actions&#45;&gt;object_ids -->
<g id="edge3" class="edge">
<title>actions:rtcol0&#45;&gt;object_ids:ltcol0</title>
<path fill="none" stroke="black" d="M1130.5,-151C1144.17,-151 1147.37,-148.12 1161,-147 1277.12,-137.41 1306.52,-140.98 1423,-138 1661.18,-131.91 1722.73,-98.32 1959,-129"/>
<text text-anchor="middle" x="1591.5" y="-141.8" font-family="Times,serif" font-size="14.00">actions_action_id_fkey</text>
</g>
<!-- actions_log -->
<g id="node4" class="node">
<title>actions_log</title>
<text text-anchor="start" x="531" y="-277" font-family="Times,serif" font-size="10.00"> </text>
<polygon fill="#e5e5e5" stroke="transparent" points="537,-271 537,-288 681,-288 681,-271 537,-271"/>
<polygon fill="none" stroke="black" points="537,-271 537,-288 681,-288 681,-271 537,-271"/>
<text text-anchor="start" x="577" y="-277" font-family="Times,serif" font-size="10.00"> actions_log </text>
<text text-anchor="start" x="539" y="-261" font-family="Times,serif" font-size="10.00"> actions_log_id </text>
<text text-anchor="start" x="622" y="-261" font-family="Times,serif" font-size="10.00"> &#160;</text>
<text text-anchor="start" x="633" y="-261" font-family="Times,serif" font-size="10.00"> PK </text>
<text text-anchor="start" x="658" y="-261" font-family="Times,serif" font-size="10.00"> &#160;</text>
<text text-anchor="start" x="683" y="-261" font-family="Times,serif" font-size="10.00"> </text>
<text text-anchor="start" x="539" y="-246" font-family="Times,serif" font-size="10.00"> action_id </text>
<text text-anchor="start" x="622" y="-246" font-family="Times,serif" font-size="10.00"> &#160;</text>
<text text-anchor="start" x="633" y="-246" font-family="Times,serif" font-size="10.00"> &#160;</text>
<text text-anchor="start" x="658" y="-246" font-family="Times,serif" font-size="10.00"> FK </text>
<text text-anchor="start" x="683" y="-246" font-family="Times,serif" font-size="10.00"> </text>
<text text-anchor="start" x="539" y="-231" font-family="Times,serif" font-size="10.00"> task_id </text>
<text text-anchor="start" x="622" y="-231" font-family="Times,serif" font-size="10.00"> &#160;</text>
<text text-anchor="start" x="633" y="-231" font-family="Times,serif" font-size="10.00"> &#160;</text>
<text text-anchor="start" x="658" y="-231" font-family="Times,serif" font-size="10.00"> FK </text>
<text text-anchor="start" x="683" y="-231" font-family="Times,serif" font-size="10.00"> </text>
<polygon fill="none" stroke="black" points="528,-225 528,-289 690,-289 690,-225 528,-225"/>
</g>
<!-- actions_log&#45;&gt;actions -->
<g id="edge4" class="edge">
<title>actions_log:rtcol0&#45;&gt;actions:ltcol0</title>
<path fill="none" stroke="black" d="M690,-280C705.04,-280 704.38,-267.37 718,-261 800.07,-222.64 842.51,-260.65 914,-205 926.57,-195.21 921.44,-185.93 932,-174 935.52,-170.02 940.33,-169.16 944.16,-167.85"/>
<polygon fill="black" stroke="black" points="946.94,-169.98 950.5,-160 941.5,-165.58 946.94,-169.98"/>
<text text-anchor="middle" x="816" y="-264.8" font-family="Times,serif" font-size="14.00">actions_log_action_id_fkey</text>
</g>
<!-- tasks -->
<g id="node15" class="node">
<title>tasks</title>
<text text-anchor="start" x="977.5" y="-314" font-family="Times,serif" font-size="10.00"> </text>
<polygon fill="#e5e5e5" stroke="transparent" points="983.5,-308 983.5,-325 1091.5,-325 1091.5,-308 983.5,-308"/>
<polygon fill="none" stroke="black" points="983.5,-308 983.5,-325 1091.5,-325 1091.5,-308 983.5,-308"/>
<text text-anchor="start" x="1021" y="-314" font-family="Times,serif" font-size="10.00"> tasks </text>
<text text-anchor="start" x="985.5" y="-298" font-family="Times,serif" font-size="10.00"> org_id </text>
<text text-anchor="start" x="1032.5" y="-298" font-family="Times,serif" font-size="10.00"> &#160;</text>
<text text-anchor="start" x="1043.5" y="-298" font-family="Times,serif" font-size="10.00"> &#160;</text>
<text text-anchor="start" x="1068.5" y="-298" font-family="Times,serif" font-size="10.00"> FK </text>
<text text-anchor="start" x="1093.5" y="-298" font-family="Times,serif" font-size="10.00"> </text>
<text text-anchor="start" x="985.5" y="-283" font-family="Times,serif" font-size="10.00"> task_id </text>
<text text-anchor="start" x="1032.5" y="-283" font-family="Times,serif" font-size="10.00"> &#160;</text>
<text text-anchor="start" x="1043.5" y="-283" font-family="Times,serif" font-size="10.00"> PK </text>
<text text-anchor="start" x="1068.5" y="-283" font-family="Times,serif" font-size="10.00"> &#160;</text>
<text text-anchor="start" x="1093.5" y="-283" font-family="Times,serif" font-size="10.00"> </text>
<polygon fill="none" stroke="black" points="974.5,-277.5 974.5,-326.5 1100.5,-326.5 1100.5,-277.5 974.5,-277.5"/>
</g>
<!-- actions_log&#45;&gt;tasks -->
<g id="edge5" class="edge">
<title>actions_log:rtcol0&#45;&gt;tasks:ltcol0</title>
<path fill="none" stroke="black" d="M690,-280C814.02,-280 845.31,-315 964.26,-316.92"/>
<polygon fill="black" stroke="black" points="964.47,-320.42 974.5,-317 964.53,-313.42 964.47,-320.42"/>
<text text-anchor="middle" x="816" y="-316.8" font-family="Times,serif" font-size="14.00">actions_log_task_id_fkey</text>
</g>
<!-- api_key_permissions -->
<g id="node5" class="node">
<title>api_key_permissions</title>
<text text-anchor="start" x="943.5" y="-239" font-family="Times,serif" font-size="10.00"> </text>
<polygon fill="#e5e5e5" stroke="transparent" points="949.5,-233 949.5,-250 1126.5,-250 1126.5,-233 949.5,-233"/>
<polygon fill="none" stroke="black" points="949.5,-233 949.5,-250 1126.5,-250 1126.5,-233 949.5,-233"/>
<text text-anchor="start" x="982" y="-239" font-family="Times,serif" font-size="10.00"> api_key_permissions </text>
<text text-anchor="start" x="951.5" y="-223" font-family="Times,serif" font-size="10.00"> permissioned_object </text>
<text text-anchor="start" x="1067.5" y="-223" font-family="Times,serif" font-size="10.00"> &#160;</text>
<text text-anchor="start" x="1078.5" y="-223" font-family="Times,serif" font-size="10.00"> PK </text>
<text text-anchor="start" x="1103.5" y="-223" font-family="Times,serif" font-size="10.00"> FK </text>
<text text-anchor="start" x="1128.5" y="-223" font-family="Times,serif" font-size="10.00"> </text>
<text text-anchor="start" x="951.5" y="-208" font-family="Times,serif" font-size="10.00"> api_key </text>
<text text-anchor="start" x="1067.5" y="-208" font-family="Times,serif" font-size="10.00"> &#160;</text>
<text text-anchor="start" x="1078.5" y="-208" font-family="Times,serif" font-size="10.00"> PK </text>
<text text-anchor="start" x="1103.5" y="-208" font-family="Times,serif" font-size="10.00"> FK </text>
<text text-anchor="start" x="1128.5" y="-208" font-family="Times,serif" font-size="10.00"> </text>
<text text-anchor="start" x="951.5" y="-193" font-family="Times,serif" font-size="10.00"> permission_type </text>
<text text-anchor="start" x="1067.5" y="-193" font-family="Times,serif" font-size="10.00"> &#160;</text>
<text text-anchor="start" x="1078.5" y="-193" font-family="Times,serif" font-size="10.00"> PK </text>
<text text-anchor="start" x="1103.5" y="-193" font-family="Times,serif" font-size="10.00"> &#160;</text>
<text text-anchor="start" x="1128.5" y="-193" font-family="Times,serif" font-size="10.00"> </text>
<polygon fill="none" stroke="black" points="940,-187 940,-251 1135,-251 1135,-187 940,-187"/>
</g>
<!-- api_keys -->
<g id="node6" class="node">
<title>api_keys</title>
<text text-anchor="start" x="1513.5" y="-455" font-family="Times,serif" font-size="10.00"> </text>
<polygon fill="#e5e5e5" stroke="transparent" points="1519.5,-449 1519.5,-466 1663.5,-466 1663.5,-449 1519.5,-449"/>
<polygon fill="none" stroke="black" points="1519.5,-449 1519.5,-466 1663.5,-466 1663.5,-449 1519.5,-449"/>
<text text-anchor="start" x="1566" y="-455" font-family="Times,serif" font-size="10.00"> api_keys </text>
<text text-anchor="start" x="1521.5" y="-439" font-family="Times,serif" font-size="10.00"> api_key </text>
<text text-anchor="start" x="1604.5" y="-439" font-family="Times,serif" font-size="10.00"> &#160;</text>
<text text-anchor="start" x="1615.5" y="-439" font-family="Times,serif" font-size="10.00"> PK </text>
<text text-anchor="start" x="1640.5" y="-439" font-family="Times,serif" font-size="10.00"> &#160;</text>
<text text-anchor="start" x="1665.5" y="-439" font-family="Times,serif" font-size="10.00"> </text>
<text text-anchor="start" x="1521.5" y="-424" font-family="Times,serif" font-size="10.00"> user_entity_id </text>
<text text-anchor="start" x="1604.5" y="-424" font-family="Times,serif" font-size="10.00"> &#160;</text>
<text text-anchor="start" x="1615.5" y="-424" font-family="Times,serif" font-size="10.00"> &#160;</text>
<text text-anchor="start" x="1640.5" y="-424" font-family="Times,serif" font-size="10.00"> FK </text>
<text text-anchor="start" x="1665.5" y="-424" font-family="Times,serif" font-size="10.00"> </text>
<polygon fill="none" stroke="black" points="1510.5,-418.5 1510.5,-467.5 1672.5,-467.5 1672.5,-418.5 1510.5,-418.5"/>
</g>
<!-- api_key_permissions&#45;&gt;api_keys -->
<g id="edge7" class="edge">
<title>api_key_permissions:rtcol0&#45;&gt;api_keys:ltcol0</title>
<path fill="none" stroke="black" d="M1135.5,-242C1143.78,-242 1399.08,-363.22 1405,-369 1417.8,-381.5 1410.87,-391.85 1423,-405 1451.41,-435.81 1463.16,-454.86 1500.45,-457.64"/>
<polygon fill="black" stroke="black" points="1500.38,-461.14 1510.5,-458 1500.63,-454.15 1500.38,-461.14"/>
<text text-anchor="middle" x="1283" y="-372.8" font-family="Times,serif" font-size="14.00">api_key_permissions_api_key_fkey</text>
</g>
<!-- api_key_permissions&#45;&gt;object_ids -->
<g id="edge6" class="edge">
<title>api_key_permissions:rtcol0&#45;&gt;object_ids:ltcol0</title>
<path fill="none" stroke="black" d="M1961,-258C2043.41,-246.37 2063.86,-238.64 2142,-210 2156.47,-204.7 2160.74,-196.05 2171.35,-192.55"/>
<polygon fill="black" stroke="black" points="2172.18,-195.96 2181.54,-191 2171.13,-189.04 2172.18,-195.96"/>
<path fill="none" stroke="black" d="M1135.5,-242C1413.11,-242 1482.45,-248.54 1760,-254 1848.45,-255.74 1871.4,-270.36 1959,-258"/>
<text text-anchor="middle" x="1591.5" y="-257.8" font-family="Times,serif" font-size="14.00">api_key_permissions_permissioned_object_fkey</text>
</g>
<!-- user_entity_ids -->
<g id="node17" class="node">
<title>user_entity_ids</title>
<text text-anchor="start" x="2171" y="-492" font-family="Times,serif" font-size="10.00"> </text>
<polygon fill="#e5e5e5" stroke="transparent" points="2177,-486 2177,-503 2307,-503 2307,-486 2177,-486"/>
<polygon fill="none" stroke="black" points="2177,-486 2177,-503 2307,-503 2307,-486 2177,-486"/>
<text text-anchor="start" x="2200" y="-492" font-family="Times,serif" font-size="10.00"> user_entity_ids </text>
<text text-anchor="start" x="2179" y="-476" font-family="Times,serif" font-size="10.00"> user_entity_id </text>
<text text-anchor="start" x="2262" y="-476" font-family="Times,serif" font-size="10.00"> &#160;</text>
<text text-anchor="start" x="2273" y="-476" font-family="Times,serif" font-size="10.00"> PK </text>
<text text-anchor="start" x="2298" y="-476" font-family="Times,serif" font-size="10.00"> &#160;</text>
<text text-anchor="start" x="2309" y="-476" font-family="Times,serif" font-size="10.00"> </text>
<polygon fill="none" stroke="black" points="2168,-470 2168,-504 2316,-504 2316,-470 2168,-470"/>
</g>
<!-- api_keys&#45;&gt;user_entity_ids -->
<g id="edge8" class="edge">
<title>api_keys:rtcol0&#45;&gt;user_entity_ids:ltcol0</title>
<path fill="none" stroke="black" d="M1672.5,-458C1881.32,-458 1944.77,-407.41 2142,-476 2151.29,-479.23 2153.33,-487 2158.35,-491.54"/>
<polygon fill="black" stroke="black" points="2157.41,-494.92 2168,-495 2159.77,-488.33 2157.41,-494.92"/>
<text text-anchor="middle" x="1960" y="-479.8" font-family="Times,serif" font-size="14.00">api_keys_user_entity_id_fkey</text>
</g>
<!-- input_categories -->
<g id="node7" class="node">
<title>input_categories</title>
<text text-anchor="start" x="1504.5" y="-26" font-family="Times,serif" font-size="10.00"> </text>
<polygon fill="#e5e5e5" stroke="transparent" points="1510.5,-20 1510.5,-37 1673.5,-37 1673.5,-20 1510.5,-20"/>
<polygon fill="none" stroke="black" points="1510.5,-20 1510.5,-37 1673.5,-37 1673.5,-20 1510.5,-20"/>
<text text-anchor="start" x="1546.5" y="-26" font-family="Times,serif" font-size="10.00"> input_categories </text>
<text text-anchor="start" x="1512.5" y="-10" font-family="Times,serif" font-size="10.00"> input_category_id </text>
<text text-anchor="start" x="1614.5" y="-10" font-family="Times,serif" font-size="10.00"> &#160;</text>
<text text-anchor="start" x="1625.5" y="-10" font-family="Times,serif" font-size="10.00"> PK </text>
<text text-anchor="start" x="1650.5" y="-10" font-family="Times,serif" font-size="10.00"> FK </text>
<text text-anchor="start" x="1675.5" y="-10" font-family="Times,serif" font-size="10.00"> </text>
<polygon fill="none" stroke="black" points="1501,-4 1501,-38 1682,-38 1682,-4 1501,-4"/>
</g>
<!-- input_categories&#45;&gt;object_ids -->
<g id="edge9" class="edge">
<title>input_categories:rtcol0&#45;&gt;object_ids:ltcol0</title>
<path fill="none" stroke="black" d="M1682.5,-29C1889.15,-29 1978.12,25.88 2142,-100 2173.89,-124.49 2144.27,-179.78 2172,-189.52"/>
<polygon fill="black" stroke="black" points="2171.6,-193 2182,-191 2172.62,-186.08 2171.6,-193"/>
<text text-anchor="middle" x="1960" y="-103.8" font-family="Times,serif" font-size="14.00">input_categories_input_category_id_fkey</text>
</g>
<!-- inputs -->
<g id="node8" class="node">
<title>inputs</title>
<text text-anchor="start" x="950.5" y="-73" font-family="Times,serif" font-size="10.00"> </text>
<polygon fill="#e5e5e5" stroke="transparent" points="956.5,-67 956.5,-84 1119.5,-84 1119.5,-67 956.5,-67"/>
<polygon fill="none" stroke="black" points="956.5,-67 956.5,-84 1119.5,-84 1119.5,-67 956.5,-67"/>
<text text-anchor="start" x="1018.5" y="-73" font-family="Times,serif" font-size="10.00"> inputs </text>
<text text-anchor="start" x="958.5" y="-57" font-family="Times,serif" font-size="10.00"> input_category_id </text>
<text text-anchor="start" x="1060.5" y="-57" font-family="Times,serif" font-size="10.00"> &#160;</text>
<text text-anchor="start" x="1071.5" y="-57" font-family="Times,serif" font-size="10.00"> &#160;</text>
<text text-anchor="start" x="1096.5" y="-57" font-family="Times,serif" font-size="10.00"> FK </text>
<text text-anchor="start" x="1121.5" y="-57" font-family="Times,serif" font-size="10.00"> </text>
<text text-anchor="start" x="958.5" y="-42" font-family="Times,serif" font-size="10.00"> input_id </text>
<text text-anchor="start" x="1060.5" y="-42" font-family="Times,serif" font-size="10.00"> &#160;</text>
<text text-anchor="start" x="1071.5" y="-42" font-family="Times,serif" font-size="10.00"> PK </text>
<text text-anchor="start" x="1096.5" y="-42" font-family="Times,serif" font-size="10.00"> FK </text>
<text text-anchor="start" x="1121.5" y="-42" font-family="Times,serif" font-size="10.00"> </text>
<polygon fill="none" stroke="black" points="947,-36.5 947,-85.5 1128,-85.5 1128,-36.5 947,-36.5"/>
</g>
<!-- inputs&#45;&gt;input_categories -->
<g id="edge10" class="edge">
<title>inputs:rtcol0&#45;&gt;input_categories:ltcol0</title>
<path fill="none" stroke="black" d="M1128.5,-76C1147.28,-76 1143.53,-55.89 1161,-49 1298.84,5.41 1347.71,-27.44 1491.44,-28.95"/>
<polygon fill="black" stroke="black" points="1491.48,-32.45 1501.5,-29 1491.52,-25.45 1491.48,-32.45"/>
<text text-anchor="middle" x="1283" y="-52.8" font-family="Times,serif" font-size="14.00">inputs_input_category_id_fkey</text>
</g>
<!-- inputs&#45;&gt;object_ids -->
<g id="edge11" class="edge">
<title>inputs:rtcol0&#45;&gt;object_ids:ltcol0</title>
<path fill="none" stroke="black" d="M1961,-129C2008.46,-134.87 2116.37,-184.24 2171.69,-190.37"/>
<polygon fill="black" stroke="black" points="2171.5,-193.87 2181.7,-191 2171.94,-186.88 2171.5,-193.87"/>
<path fill="none" stroke="black" d="M1128.5,-76C1268.91,-76 1631.19,-41.12 1760,-97 1770.38,-101.5 1767.72,-110.27 1778,-115 1851.3,-148.73 1878.93,-119.1 1959,-129"/>
<text text-anchor="middle" x="1591.5" y="-100.8" font-family="Times,serif" font-size="14.00">inputs_input_id_fkey</text>
</g>
<!-- inputs_log -->
<g id="node9" class="node">
<title>inputs_log</title>
<text text-anchor="start" x="533" y="-73" font-family="Times,serif" font-size="10.00"> </text>
<polygon fill="#e5e5e5" stroke="transparent" points="539,-67 539,-84 679,-84 679,-67 539,-67"/>
<polygon fill="none" stroke="black" points="539,-67 539,-84 679,-84 679,-67 539,-67"/>
<text text-anchor="start" x="579" y="-73" font-family="Times,serif" font-size="10.00"> inputs_log </text>
<text text-anchor="start" x="541" y="-57" font-family="Times,serif" font-size="10.00"> inputs_log_id </text>
<text text-anchor="start" x="620" y="-57" font-family="Times,serif" font-size="10.00"> &#160;</text>
<text text-anchor="start" x="631" y="-57" font-family="Times,serif" font-size="10.00"> PK </text>
<text text-anchor="start" x="656" y="-57" font-family="Times,serif" font-size="10.00"> &#160;</text>
<text text-anchor="start" x="681" y="-57" font-family="Times,serif" font-size="10.00"> </text>
<text text-anchor="start" x="541" y="-42" font-family="Times,serif" font-size="10.00"> input_id </text>
<text text-anchor="start" x="620" y="-42" font-family="Times,serif" font-size="10.00"> &#160;</text>
<text text-anchor="start" x="631" y="-42" font-family="Times,serif" font-size="10.00"> &#160;</text>
<text text-anchor="start" x="656" y="-42" font-family="Times,serif" font-size="10.00"> FK </text>
<text text-anchor="start" x="681" y="-42" font-family="Times,serif" font-size="10.00"> </text>
<polygon fill="none" stroke="black" points="530,-36.5 530,-85.5 688,-85.5 688,-36.5 530,-36.5"/>
</g>
<!-- inputs_log&#45;&gt;inputs -->
<g id="edge12" class="edge">
<title>inputs_log:rtcol0&#45;&gt;inputs:ltcol0</title>
<path fill="none" stroke="black" d="M688,-76C799.84,-76 830.34,-76 937.26,-76"/>
<polygon fill="black" stroke="black" points="937.5,-79.5 947.5,-76 937.5,-72.5 937.5,-79.5"/>
<text text-anchor="middle" x="816" y="-79.8" font-family="Times,serif" font-size="14.00">inputs_log_input_id_fkey</text>
</g>
<!-- orgs -->
<g id="node11" class="node">
<title>orgs</title>
<text text-anchor="start" x="1510.5" y="-530" font-family="Times,serif" font-size="10.00"> </text>
<polygon fill="#e5e5e5" stroke="transparent" points="1516.5,-524 1516.5,-541 1667.5,-541 1667.5,-524 1516.5,-524"/>
<polygon fill="none" stroke="black" points="1516.5,-524 1516.5,-541 1667.5,-541 1667.5,-524 1516.5,-524"/>
<text text-anchor="start" x="1577.5" y="-530" font-family="Times,serif" font-size="10.00"> orgs </text>
<text text-anchor="start" x="1518.5" y="-514" font-family="Times,serif" font-size="10.00"> org_id </text>
<text text-anchor="start" x="1608.5" y="-514" font-family="Times,serif" font-size="10.00"> &#160;</text>
<text text-anchor="start" x="1619.5" y="-514" font-family="Times,serif" font-size="10.00"> PK </text>
<text text-anchor="start" x="1644.5" y="-514" font-family="Times,serif" font-size="10.00"> FK </text>
<text text-anchor="start" x="1669.5" y="-514" font-family="Times,serif" font-size="10.00"> </text>
<text text-anchor="start" x="1518.5" y="-499" font-family="Times,serif" font-size="10.00"> external_org_id </text>
<text text-anchor="start" x="1608.5" y="-499" font-family="Times,serif" font-size="10.00"> &#160;</text>
<text text-anchor="start" x="1619.5" y="-499" font-family="Times,serif" font-size="10.00"> &#160;</text>
<text text-anchor="start" x="1644.5" y="-499" font-family="Times,serif" font-size="10.00"> &#160;</text>
<text text-anchor="start" x="1669.5" y="-499" font-family="Times,serif" font-size="10.00"> </text>
<polygon fill="none" stroke="black" points="1507,-493.5 1507,-542.5 1676,-542.5 1676,-493.5 1507,-493.5"/>
</g>
<!-- orgs&#45;&gt;user_entity_ids -->
<g id="edge13" class="edge">
<title>orgs:rtcol0&#45;&gt;user_entity_ids:ltcol0</title>
<path fill="none" stroke="black" d="M1676.5,-533C1892.17,-533 1947.2,-496.18 2157.85,-495.03"/>
<polygon fill="black" stroke="black" points="2158.01,-498.53 2168,-495 2157.99,-491.53 2158.01,-498.53"/>
<text text-anchor="middle" x="1960" y="-532.8" font-family="Times,serif" font-size="14.00">orgs_org_id_fkey</text>
</g>
<!-- roles -->
<g id="node12" class="node">
<title>roles</title>
<text text-anchor="start" x="978.5" y="-622" font-family="Times,serif" font-size="10.00"> </text>
<polygon fill="#e5e5e5" stroke="transparent" points="984.5,-616 984.5,-633 1090.5,-633 1090.5,-616 984.5,-616"/>
<polygon fill="none" stroke="black" points="984.5,-616 984.5,-633 1090.5,-633 1090.5,-616 984.5,-616"/>
<text text-anchor="start" x="1022" y="-622" font-family="Times,serif" font-size="10.00"> roles </text>
<text text-anchor="start" x="986.5" y="-606" font-family="Times,serif" font-size="10.00"> org_id </text>
<text text-anchor="start" x="1031.5" y="-606" font-family="Times,serif" font-size="10.00"> &#160;</text>
<text text-anchor="start" x="1042.5" y="-606" font-family="Times,serif" font-size="10.00"> &#160;</text>
<text text-anchor="start" x="1067.5" y="-606" font-family="Times,serif" font-size="10.00"> FK </text>
<text text-anchor="start" x="1092.5" y="-606" font-family="Times,serif" font-size="10.00"> </text>
<text text-anchor="start" x="986.5" y="-591" font-family="Times,serif" font-size="10.00"> role_id </text>
<text text-anchor="start" x="1031.5" y="-591" font-family="Times,serif" font-size="10.00"> &#160;</text>
<text text-anchor="start" x="1042.5" y="-591" font-family="Times,serif" font-size="10.00"> PK </text>
<text text-anchor="start" x="1067.5" y="-591" font-family="Times,serif" font-size="10.00"> &#160;</text>
<text text-anchor="start" x="1092.5" y="-591" font-family="Times,serif" font-size="10.00"> </text>
<polygon fill="none" stroke="black" points="975.5,-585.5 975.5,-634.5 1099.5,-634.5 1099.5,-585.5 975.5,-585.5"/>
</g>
<!-- roles&#45;&gt;orgs -->
<g id="edge14" class="edge">
<title>roles:rtcol0&#45;&gt;orgs:ltcol0</title>
<path fill="none" stroke="black" d="M1099.5,-625C1128.24,-625 1133.13,-612.01 1161,-605 1267.86,-578.12 1297.52,-585.32 1405,-561 1447.46,-551.39 1458.61,-535.7 1497.09,-533.31"/>
<polygon fill="black" stroke="black" points="1497.61,-536.8 1507.5,-533 1497.4,-529.8 1497.61,-536.8"/>
<text text-anchor="middle" x="1283" y="-608.8" font-family="Times,serif" font-size="14.00">roles_org_id_fkey</text>
</g>
<!-- roles&#45;&gt;user_entity_ids -->
<g id="edge15" class="edge">
<title>roles:rtcol0&#45;&gt;user_entity_ids:ltcol0</title>
<path fill="none" stroke="black" d="M1099.5,-625C1269.75,-625 1956.87,-608.46 1959,-608"/>
<text text-anchor="middle" x="1591.5" y="-623.8" font-family="Times,serif" font-size="14.00">roles_role_id_fkey</text>
</g>
<!-- task_triggers -->
<g id="node13" class="node">
<title>task_triggers</title>
<text text-anchor="start" x="529" y="-172" font-family="Times,serif" font-size="10.00"> </text>
<polygon fill="#e5e5e5" stroke="transparent" points="535,-166 535,-183 683,-183 683,-166 535,-166"/>
<polygon fill="none" stroke="black" points="535,-166 535,-183 683,-183 683,-166 535,-166"/>
<text text-anchor="start" x="572.5" y="-172" font-family="Times,serif" font-size="10.00"> task_triggers </text>
<text text-anchor="start" x="537" y="-156" font-family="Times,serif" font-size="10.00"> task_trigger_id </text>
<text text-anchor="start" x="624" y="-156" font-family="Times,serif" font-size="10.00"> &#160;</text>
<text text-anchor="start" x="635" y="-156" font-family="Times,serif" font-size="10.00"> PK </text>
<text text-anchor="start" x="660" y="-156" font-family="Times,serif" font-size="10.00"> &#160;</text>
<text text-anchor="start" x="685" y="-156" font-family="Times,serif" font-size="10.00"> </text>
<text text-anchor="start" x="537" y="-141" font-family="Times,serif" font-size="10.00"> input_id </text>
<text text-anchor="start" x="624" y="-141" font-family="Times,serif" font-size="10.00"> &#160;</text>
<text text-anchor="start" x="635" y="-141" font-family="Times,serif" font-size="10.00"> &#160;</text>
<text text-anchor="start" x="660" y="-141" font-family="Times,serif" font-size="10.00"> FK </text>
<text text-anchor="start" x="685" y="-141" font-family="Times,serif" font-size="10.00"> </text>
<text text-anchor="start" x="537" y="-126" font-family="Times,serif" font-size="10.00"> task_id </text>
<text text-anchor="start" x="624" y="-126" font-family="Times,serif" font-size="10.00"> &#160;</text>
<text text-anchor="start" x="635" y="-126" font-family="Times,serif" font-size="10.00"> &#160;</text>
<text text-anchor="start" x="660" y="-126" font-family="Times,serif" font-size="10.00"> FK </text>
<text text-anchor="start" x="685" y="-126" font-family="Times,serif" font-size="10.00"> </text>
<polygon fill="none" stroke="black" points="526,-120 526,-184 692,-184 692,-120 526,-120"/>
</g>
<!-- task_triggers&#45;&gt;inputs -->
<g id="edge16" class="edge">
<title>task_triggers:rtcol0&#45;&gt;inputs:ltcol0</title>
<path fill="none" stroke="black" d="M692,-175C708.34,-175 703.88,-157.22 718,-149 796.09,-103.55 830.51,-129.55 914,-95 925.99,-90.04 929.21,-81.69 937.52,-77.93"/>
<polygon fill="black" stroke="black" points="938.35,-81.34 947.5,-76 937.02,-74.46 938.35,-81.34"/>
<text text-anchor="middle" x="816" y="-152.8" font-family="Times,serif" font-size="14.00">task_triggers_input_id_fkey</text>
</g>
<!-- task_triggers&#45;&gt;tasks -->
<g id="edge17" class="edge">
<title>task_triggers:rtcol0&#45;&gt;tasks:ltcol0</title>
<path fill="none" stroke="black" d="M692,-175C741.39,-175 876.12,-154.3 914,-186 941.29,-208.83 916.48,-231.98 932,-264 943.52,-287.77 944.3,-310.52 964.55,-315.84"/>
<polygon fill="black" stroke="black" points="964.16,-319.32 974.5,-317 964.97,-312.36 964.16,-319.32"/>
<text text-anchor="middle" x="816" y="-189.8" font-family="Times,serif" font-size="14.00">task_triggers_task_id_fkey</text>
</g>
<!-- task_triggers_log -->
<g id="node14" class="node">
<title>task_triggers_log</title>
<text text-anchor="start" x="11" y="-172" font-family="Times,serif" font-size="10.00"> </text>
<polygon fill="#e5e5e5" stroke="transparent" points="17,-166 17,-183 191,-183 191,-166 17,-166"/>
<polygon fill="none" stroke="black" points="17,-166 17,-183 191,-183 191,-166 17,-166"/>
<text text-anchor="start" x="57" y="-172" font-family="Times,serif" font-size="10.00"> task_triggers_log </text>
<text text-anchor="start" x="19" y="-156" font-family="Times,serif" font-size="10.00"> task_triggers_log_id </text>
<text text-anchor="start" x="132" y="-156" font-family="Times,serif" font-size="10.00"> &#160;</text>
<text text-anchor="start" x="143" y="-156" font-family="Times,serif" font-size="10.00"> PK </text>
<text text-anchor="start" x="168" y="-156" font-family="Times,serif" font-size="10.00"> &#160;</text>
<text text-anchor="start" x="193" y="-156" font-family="Times,serif" font-size="10.00"> </text>
<text text-anchor="start" x="19" y="-141" font-family="Times,serif" font-size="10.00"> task_trigger_id </text>
<text text-anchor="start" x="132" y="-141" font-family="Times,serif" font-size="10.00"> &#160;</text>
<text text-anchor="start" x="143" y="-141" font-family="Times,serif" font-size="10.00"> &#160;</text>
<text text-anchor="start" x="168" y="-141" font-family="Times,serif" font-size="10.00"> FK </text>
<text text-anchor="start" x="193" y="-141" font-family="Times,serif" font-size="10.00"> </text>
<polygon fill="none" stroke="black" points="8,-135.5 8,-184.5 200,-184.5 200,-135.5 8,-135.5"/>
</g>
<!-- task_triggers_log&#45;&gt;task_triggers -->
<g id="edge18" class="edge">
<title>task_triggers_log:rtcol0&#45;&gt;task_triggers:ltcol0</title>
<path fill="none" stroke="black" d="M200,-175C341.49,-175 379.35,-175 515.99,-175"/>
<polygon fill="black" stroke="black" points="516,-178.5 526,-175 516,-171.5 516,-178.5"/>
<text text-anchor="middle" x="363" y="-178.8" font-family="Times,serif" font-size="14.00">task_triggers_log_task_trigger_id_fkey</text>
</g>
<!-- tasks&#45;&gt;object_ids -->
<g id="edge20" class="edge">
<title>tasks:rtcol0&#45;&gt;object_ids:ltcol0</title>
<path fill="none" stroke="black" d="M1100.5,-317C1124.4,-317 1935.36,-261.56 1959,-258"/>
<text text-anchor="middle" x="1591.5" y="-299.8" font-family="Times,serif" font-size="14.00">tasks_task_id_fkey</text>
</g>
<!-- tasks&#45;&gt;orgs -->
<g id="edge19" class="edge">
<title>tasks:rtcol0&#45;&gt;orgs:ltcol0</title>
<path fill="none" stroke="black" d="M1095.5,-326C1095.5,-374.63 1420.56,-517.45 1497.39,-531.83"/>
<polygon fill="black" stroke="black" points="1497.16,-535.33 1507.5,-533 1497.97,-528.37 1497.16,-535.33"/>
<text text-anchor="middle" x="1283" y="-504.8" font-family="Times,serif" font-size="14.00">tasks_org_id_fkey</text>
</g>
<!-- test -->
<g id="node16" class="node">
<title>test</title>
<text text-anchor="start" x="65" y="-233" font-family="Times,serif" font-size="10.00"> </text>
<polygon fill="#e5e5e5" stroke="transparent" points="71,-227 71,-244 138,-244 138,-227 71,-227"/>
<polygon fill="none" stroke="black" points="71,-227 71,-244 138,-244 138,-227 71,-227"/>
<text text-anchor="start" x="92" y="-233" font-family="Times,serif" font-size="10.00"> test </text>
<text text-anchor="start" x="73" y="-217" font-family="Times,serif" font-size="10.00"> id </text>
<text text-anchor="start" x="93" y="-217" font-family="Times,serif" font-size="10.00"> &#160;</text>
<text text-anchor="start" x="104" y="-217" font-family="Times,serif" font-size="10.00"> PK </text>
<text text-anchor="start" x="129" y="-217" font-family="Times,serif" font-size="10.00"> &#160;</text>
<text text-anchor="start" x="140" y="-217" font-family="Times,serif" font-size="10.00"> </text>
<polygon fill="none" stroke="black" points="61.5,-211 61.5,-245 146.5,-245 146.5,-211 61.5,-211"/>
</g>
<!-- user_entity_permissions -->
<g id="node18" class="node">
<title>user_entity_permissions</title>
<text text-anchor="start" x="1497.5" y="-380" font-family="Times,serif" font-size="10.00"> </text>
<polygon fill="#e5e5e5" stroke="transparent" points="1503.5,-374 1503.5,-391 1680.5,-391 1680.5,-374 1503.5,-374"/>
<polygon fill="none" stroke="black" points="1503.5,-374 1503.5,-391 1680.5,-391 1680.5,-374 1503.5,-374"/>
<text text-anchor="start" x="1527" y="-380" font-family="Times,serif" font-size="10.00"> user_entity_permissions </text>
<text text-anchor="start" x="1505.5" y="-364" font-family="Times,serif" font-size="10.00"> permission_type </text>
<text text-anchor="start" x="1621.5" y="-364" font-family="Times,serif" font-size="10.00"> &#160;</text>
<text text-anchor="start" x="1632.5" y="-364" font-family="Times,serif" font-size="10.00"> PK </text>
<text text-anchor="start" x="1657.5" y="-364" font-family="Times,serif" font-size="10.00"> &#160;</text>
<text text-anchor="start" x="1682.5" y="-364" font-family="Times,serif" font-size="10.00"> </text>
<text text-anchor="start" x="1505.5" y="-349" font-family="Times,serif" font-size="10.00"> user_entity_id </text>
<text text-anchor="start" x="1621.5" y="-349" font-family="Times,serif" font-size="10.00"> &#160;</text>
<text text-anchor="start" x="1632.5" y="-349" font-family="Times,serif" font-size="10.00"> PK </text>
<text text-anchor="start" x="1657.5" y="-349" font-family="Times,serif" font-size="10.00"> &#160;</text>
<text text-anchor="start" x="1682.5" y="-349" font-family="Times,serif" font-size="10.00"> </text>
<text text-anchor="start" x="1505.5" y="-334" font-family="Times,serif" font-size="10.00"> permissioned_object </text>
<text text-anchor="start" x="1621.5" y="-334" font-family="Times,serif" font-size="10.00"> &#160;</text>
<text text-anchor="start" x="1632.5" y="-334" font-family="Times,serif" font-size="10.00"> PK </text>
<text text-anchor="start" x="1657.5" y="-334" font-family="Times,serif" font-size="10.00"> FK </text>
<text text-anchor="start" x="1682.5" y="-334" font-family="Times,serif" font-size="10.00"> </text>
<polygon fill="none" stroke="black" points="1494,-328 1494,-392 1689,-392 1689,-328 1494,-328"/>
</g>
<!-- user_entity_permissions&#45;&gt;object_ids -->
<g id="edge22" class="edge">
<title>user_entity_permissions:rtcol0&#45;&gt;object_ids:ltcol0</title>
<path fill="none" stroke="black" d="M1689.5,-383C1734.25,-383 1735.73,-349.68 1778,-335 1933.1,-281.15 2005.74,-363.59 2142,-272 2170.26,-253 2184.16,-240.39 2186.6,-210.38"/>
<polygon fill="black" stroke="black" points="2190.12,-210.13 2187,-200 2183.12,-209.86 2190.12,-210.13"/>
<text text-anchor="middle" x="1960" y="-338.8" font-family="Times,serif" font-size="14.00">user_entity_permissions_permissioned_object_fkey</text>
</g>
<!-- user_entity_permissions&#45;&gt;user_entity_ids -->
<g id="edge21" class="edge">
<title>user_entity_permissions:rtcol0&#45;&gt;user_entity_ids:ltcol0</title>
<path fill="none" stroke="black" d="M1689.5,-383C1891.32,-383 1982.36,-297.52 2142,-421 2166.13,-439.66 2141.25,-482.32 2158.01,-492.7"/>
<polygon fill="black" stroke="black" points="2157.47,-496.16 2168,-495 2159.04,-489.34 2157.47,-496.16"/>
<text text-anchor="middle" x="1960" y="-424.8" font-family="Times,serif" font-size="14.00">user_entity_permissions_user_entity_id_fkey</text>
</g>
<!-- user_roles -->
<g id="node19" class="node">
<title>user_roles</title>
<text text-anchor="start" x="556" y="-575" font-family="Times,serif" font-size="10.00"> </text>
<polygon fill="#e5e5e5" stroke="transparent" points="562,-569 562,-586 657,-586 657,-569 562,-569"/>
<polygon fill="none" stroke="black" points="562,-569 562,-586 657,-586 657,-569 562,-569"/>
<text text-anchor="start" x="580" y="-575" font-family="Times,serif" font-size="10.00"> user_roles </text>
<text text-anchor="start" x="564" y="-559" font-family="Times,serif" font-size="10.00"> role_id </text>
<text text-anchor="start" x="612" y="-559" font-family="Times,serif" font-size="10.00"> &#160;</text>
<text text-anchor="start" x="623" y="-559" font-family="Times,serif" font-size="10.00"> PK </text>
<text text-anchor="start" x="648" y="-559" font-family="Times,serif" font-size="10.00"> &#160;</text>
<text text-anchor="start" x="659" y="-559" font-family="Times,serif" font-size="10.00"> </text>
<text text-anchor="start" x="564" y="-544" font-family="Times,serif" font-size="10.00"> user_id </text>
<text text-anchor="start" x="612" y="-544" font-family="Times,serif" font-size="10.00"> &#160;</text>
<text text-anchor="start" x="623" y="-544" font-family="Times,serif" font-size="10.00"> PK </text>
<text text-anchor="start" x="648" y="-544" font-family="Times,serif" font-size="10.00"> &#160;</text>
<text text-anchor="start" x="659" y="-544" font-family="Times,serif" font-size="10.00"> </text>
<polygon fill="none" stroke="black" points="552.5,-538.5 552.5,-587.5 665.5,-587.5 665.5,-538.5 552.5,-538.5"/>
</g>
<!-- user_roles&#45;&gt;roles -->
<g id="edge23" class="edge">
<title>user_roles:rtcol0&#45;&gt;roles:ltcol0</title>
<path fill="none" stroke="black" d="M666,-578C690.05,-578 694.44,-588.17 718,-593 827.55,-615.46 858.33,-624.45 965.26,-624.98"/>
<polygon fill="black" stroke="black" points="965.49,-628.48 975.5,-625 965.51,-621.48 965.49,-628.48"/>
<text text-anchor="middle" x="816" y="-626.8" font-family="Times,serif" font-size="14.00">user_roles_role_id_fkey</text>
</g>
<!-- users -->
<g id="node20" class="node">
<title>users</title>
<text text-anchor="start" x="953.5" y="-547" font-family="Times,serif" font-size="10.00"> </text>
<polygon fill="#e5e5e5" stroke="transparent" points="959.5,-541 959.5,-558 1115.5,-558 1115.5,-541 959.5,-541"/>
<polygon fill="none" stroke="black" points="959.5,-541 959.5,-558 1115.5,-558 1115.5,-541 959.5,-541"/>
<text text-anchor="start" x="1020.5" y="-547" font-family="Times,serif" font-size="10.00"> users </text>
<text text-anchor="start" x="961.5" y="-531" font-family="Times,serif" font-size="10.00"> active_org_id </text>
<text text-anchor="start" x="1056.5" y="-531" font-family="Times,serif" font-size="10.00"> &#160;</text>
<text text-anchor="start" x="1067.5" y="-531" font-family="Times,serif" font-size="10.00"> &#160;</text>
<text text-anchor="start" x="1092.5" y="-531" font-family="Times,serif" font-size="10.00"> FK </text>
<text text-anchor="start" x="1117.5" y="-531" font-family="Times,serif" font-size="10.00"> </text>
<text text-anchor="start" x="961.5" y="-516" font-family="Times,serif" font-size="10.00"> external_user_id </text>
<text text-anchor="start" x="1056.5" y="-516" font-family="Times,serif" font-size="10.00"> &#160;</text>
<text text-anchor="start" x="1067.5" y="-516" font-family="Times,serif" font-size="10.00"> &#160;</text>
<text text-anchor="start" x="1092.5" y="-516" font-family="Times,serif" font-size="10.00"> &#160;</text>
<text text-anchor="start" x="1117.5" y="-516" font-family="Times,serif" font-size="10.00"> </text>
<text text-anchor="start" x="961.5" y="-501" font-family="Times,serif" font-size="10.00"> email </text>
<text text-anchor="start" x="1056.5" y="-501" font-family="Times,serif" font-size="10.00"> &#160;</text>
<text text-anchor="start" x="1067.5" y="-501" font-family="Times,serif" font-size="10.00"> &#160;</text>
<text text-anchor="start" x="1092.5" y="-501" font-family="Times,serif" font-size="10.00"> &#160;</text>
<text text-anchor="start" x="1117.5" y="-501" font-family="Times,serif" font-size="10.00"> </text>
<text text-anchor="start" x="961.5" y="-486" font-family="Times,serif" font-size="10.00"> user_id </text>
<text text-anchor="start" x="1056.5" y="-486" font-family="Times,serif" font-size="10.00"> &#160;</text>
<text text-anchor="start" x="1067.5" y="-486" font-family="Times,serif" font-size="10.00"> PK </text>
<text text-anchor="start" x="1092.5" y="-486" font-family="Times,serif" font-size="10.00"> &#160;</text>
<text text-anchor="start" x="1117.5" y="-486" font-family="Times,serif" font-size="10.00"> </text>
<polygon fill="none" stroke="black" points="950.5,-480.5 950.5,-559.5 1124.5,-559.5 1124.5,-480.5 950.5,-480.5"/>
</g>
<!-- user_roles&#45;&gt;users -->
<g id="edge24" class="edge">
<title>user_roles:rtcol0&#45;&gt;users:ltcol0</title>
<path fill="none" stroke="black" d="M666,-578C789.58,-578 821.71,-551.51 940.29,-550.06"/>
<polygon fill="black" stroke="black" points="940.52,-553.56 950.5,-550 940.48,-546.56 940.52,-553.56"/>
<text text-anchor="middle" x="816" y="-579.8" font-family="Times,serif" font-size="14.00">user_roles_user_id_fkey</text>
</g>
<!-- users&#45;&gt;orgs -->
<g id="edge25" class="edge">
<title>users:rtcol0&#45;&gt;orgs:ltcol0</title>
<path fill="none" stroke="black" d="M1124.5,-550C1141.11,-550 1144.51,-544 1161,-542 1310.49,-523.84 1351.62,-532.58 1497.29,-532.99"/>
<polygon fill="black" stroke="black" points="1497.5,-536.49 1507.5,-533 1497.5,-529.49 1497.5,-536.49"/>
<text text-anchor="middle" x="1283" y="-545.8" font-family="Times,serif" font-size="14.00">users_active_org_id_fkey</text>
</g>
<!-- users&#45;&gt;user_entity_ids -->
<g id="edge26" class="edge">
<title>users:rtcol0&#45;&gt;user_entity_ids:ltcol0</title>
<path fill="none" stroke="black" d="M1961,-608C2060.28,-587.53 2165.55,-607.49 2172.62,-514.31"/>
<polygon fill="black" stroke="black" points="2176.12,-514.43 2173,-504.31 2169.13,-514.17 2176.12,-514.43"/>
<path fill="none" stroke="black" d="M1124.5,-550C1141.02,-550 1144.61,-554.91 1161,-557 1172.02,-558.4 1948.12,-610.24 1959,-608"/>
<text text-anchor="middle" x="1591.5" y="-599.8" font-family="Times,serif" font-size="14.00">users_user_id_fkey</text>
</g>
</g>
</svg>
