<?xml version="1.0" encoding="UTF-8" standalone="no"?>
<!DOCTYPE svg PUBLIC "-//W3C//DTD SVG 1.1//EN"
 "http://www.w3.org/Graphics/SVG/1.1/DTD/svg11.dtd">
<!-- Generated by graphviz version 2.43.0 (0)
 -->
<!-- Title: g Pages: 1 -->
<svg width="1556pt" height="344pt"
 viewBox="0.00 0.00 1556.00 344.00" xmlns="http://www.w3.org/2000/svg" xmlns:xlink="http://www.w3.org/1999/xlink">
<g id="graph0" class="graph" transform="scale(1 1) rotate(0) translate(4 340)">
<title>g</title>
<polygon fill="white" stroke="transparent" points="-4,4 -4,-340 1552,-340 1552,4 -4,4"/>
<!-- _sqlx_migrations -->
<g id="node1" class="node">
<title>_sqlx_migrations</title>
<text text-anchor="start" x="13.5" y="-101" font-family="Times,serif" font-size="10.00"> </text>
<polygon fill="#e5e5e5" stroke="transparent" points="19.5,-95 19.5,-112 118.5,-112 118.5,-95 19.5,-95"/>
<polygon fill="none" stroke="black" points="19.5,-95 19.5,-112 118.5,-112 118.5,-95 19.5,-95"/>
<text text-anchor="start" x="22.5" y="-101" font-family="Times,serif" font-size="10.00"> _sqlx_migrations </text>
<text text-anchor="start" x="21.5" y="-85" font-family="Times,serif" font-size="10.00"> version </text>
<text text-anchor="start" x="71.5" y="-85" font-family="Times,serif" font-size="10.00"> &#160;</text>
<text text-anchor="start" x="83.5" y="-85" font-family="Times,serif" font-size="10.00"> PK </text>
<text text-anchor="start" x="108.5" y="-85" font-family="Times,serif" font-size="10.00"> &#160;</text>
<text text-anchor="start" x="120.5" y="-85" font-family="Times,serif" font-size="10.00"> </text>
<polygon fill="none" stroke="black" points="10,-79 10,-113 127,-113 127,-79 10,-79"/>
</g>
<!-- api_key_permissions -->
<g id="node2" class="node">
<title>api_key_permissions</title>
<text text-anchor="start" x="353.5" y="-309" font-family="Times,serif" font-size="10.00"> </text>
<polygon fill="#e5e5e5" stroke="transparent" points="359.5,-303 359.5,-320 536.5,-320 536.5,-303 359.5,-303"/>
<polygon fill="none" stroke="black" points="359.5,-303 359.5,-320 536.5,-320 536.5,-303 359.5,-303"/>
<text text-anchor="start" x="392" y="-309" font-family="Times,serif" font-size="10.00"> api_key_permissions </text>
<text text-anchor="start" x="361.5" y="-293" font-family="Times,serif" font-size="10.00"> permission_type </text>
<text text-anchor="start" x="477.5" y="-293" font-family="Times,serif" font-size="10.00"> &#160;</text>
<text text-anchor="start" x="488.5" y="-293" font-family="Times,serif" font-size="10.00"> PK </text>
<text text-anchor="start" x="513.5" y="-293" font-family="Times,serif" font-size="10.00"> &#160;</text>
<text text-anchor="start" x="538.5" y="-293" font-family="Times,serif" font-size="10.00"> </text>
<text text-anchor="start" x="361.5" y="-278" font-family="Times,serif" font-size="10.00"> permissioned_object </text>
<text text-anchor="start" x="477.5" y="-278" font-family="Times,serif" font-size="10.00"> &#160;</text>
<text text-anchor="start" x="488.5" y="-278" font-family="Times,serif" font-size="10.00"> PK </text>
<text text-anchor="start" x="513.5" y="-278" font-family="Times,serif" font-size="10.00"> &#160;</text>
<text text-anchor="start" x="538.5" y="-278" font-family="Times,serif" font-size="10.00"> </text>
<text text-anchor="start" x="361.5" y="-263" font-family="Times,serif" font-size="10.00"> api_key </text>
<text text-anchor="start" x="477.5" y="-263" font-family="Times,serif" font-size="10.00"> &#160;</text>
<text text-anchor="start" x="488.5" y="-263" font-family="Times,serif" font-size="10.00"> PK </text>
<text text-anchor="start" x="513.5" y="-263" font-family="Times,serif" font-size="10.00"> FK </text>
<text text-anchor="start" x="538.5" y="-263" font-family="Times,serif" font-size="10.00"> </text>
<polygon fill="none" stroke="black" points="350,-257 350,-321 545,-321 545,-257 350,-257"/>
</g>
<!-- api_keys -->
<g id="node3" class="node">
<title>api_keys</title>
<text text-anchor="start" x="853.5" y="-309" font-family="Times,serif" font-size="10.00"> </text>
<polygon fill="#e5e5e5" stroke="transparent" points="859.5,-303 859.5,-320 1003.5,-320 1003.5,-303 859.5,-303"/>
<polygon fill="none" stroke="black" points="859.5,-303 859.5,-320 1003.5,-320 1003.5,-303 859.5,-303"/>
<text text-anchor="start" x="906" y="-309" font-family="Times,serif" font-size="10.00"> api_keys </text>
<text text-anchor="start" x="861.5" y="-293" font-family="Times,serif" font-size="10.00"> user_entity_id </text>
<text text-anchor="start" x="944.5" y="-293" font-family="Times,serif" font-size="10.00"> &#160;</text>
<text text-anchor="start" x="955.5" y="-293" font-family="Times,serif" font-size="10.00"> &#160;</text>
<text text-anchor="start" x="980.5" y="-293" font-family="Times,serif" font-size="10.00"> FK </text>
<text text-anchor="start" x="1005.5" y="-293" font-family="Times,serif" font-size="10.00"> </text>
<text text-anchor="start" x="861.5" y="-278" font-family="Times,serif" font-size="10.00"> api_key </text>
<text text-anchor="start" x="944.5" y="-278" font-family="Times,serif" font-size="10.00"> &#160;</text>
<text text-anchor="start" x="955.5" y="-278" font-family="Times,serif" font-size="10.00"> PK </text>
<text text-anchor="start" x="980.5" y="-278" font-family="Times,serif" font-size="10.00"> &#160;</text>
<text text-anchor="start" x="1005.5" y="-278" font-family="Times,serif" font-size="10.00"> </text>
<polygon fill="none" stroke="black" points="850.5,-272.5 850.5,-321.5 1012.5,-321.5 1012.5,-272.5 850.5,-272.5"/>
</g>
<!-- api_key_permissions&#45;&gt;api_keys -->
<g id="edge1" class="edge">
<title>api_key_permissions:rtcol0&#45;&gt;api_keys:ltcol0</title>
<path fill="none" stroke="black" d="M545.5,-312C677.61,-312 713.16,-312 840.37,-312"/>
<polygon fill="black" stroke="black" points="840.5,-315.5 850.5,-312 840.5,-308.5 840.5,-315.5"/>
<text text-anchor="middle" x="693" y="-315.8" font-family="Times,serif" font-size="14.00">api_key_permissions_api_key_fkey</text>
</g>
<!-- user_entity_ids -->
<g id="node8" class="node">
<title>user_entity_ids</title>
<text text-anchor="start" x="1395" y="-182" font-family="Times,serif" font-size="10.00"> </text>
<polygon fill="#e5e5e5" stroke="transparent" points="1401,-176 1401,-193 1531,-193 1531,-176 1401,-176"/>
<polygon fill="none" stroke="black" points="1401,-176 1401,-193 1531,-193 1531,-176 1401,-176"/>
<text text-anchor="start" x="1424" y="-182" font-family="Times,serif" font-size="10.00"> user_entity_ids </text>
<text text-anchor="start" x="1403" y="-166" font-family="Times,serif" font-size="10.00"> user_entity_id </text>
<text text-anchor="start" x="1486" y="-166" font-family="Times,serif" font-size="10.00"> &#160;</text>
<text text-anchor="start" x="1497" y="-166" font-family="Times,serif" font-size="10.00"> PK </text>
<text text-anchor="start" x="1522" y="-166" font-family="Times,serif" font-size="10.00"> &#160;</text>
<text text-anchor="start" x="1533" y="-166" font-family="Times,serif" font-size="10.00"> </text>
<polygon fill="none" stroke="black" points="1392,-160 1392,-194 1540,-194 1540,-160 1392,-160"/>
</g>
<!-- api_keys&#45;&gt;user_entity_ids -->
<g id="edge2" class="edge">
<title>api_keys:rtcol0&#45;&gt;user_entity_ids:ltcol0</title>
<path fill="none" stroke="black" d="M1012.5,-312C1187.76,-312 1388.97,-370.41 1396.77,-204.2"/>
<polygon fill="black" stroke="black" points="1400.27,-204.08 1397,-194 1393.27,-203.92 1400.27,-204.08"/>
<text text-anchor="middle" x="1207" y="-324.8" font-family="Times,serif" font-size="14.00">api_keys_user_entity_id_fkey</text>
</g>
<!-- object_ids -->
<g id="node4" class="node">
<title>object_ids</title>
<text text-anchor="start" x="11.5" y="-237" font-family="Times,serif" font-size="10.00"> </text>
<polygon fill="#e5e5e5" stroke="transparent" points="17.5,-231 17.5,-248 120.5,-248 120.5,-231 17.5,-231"/>
<polygon fill="none" stroke="black" points="17.5,-231 17.5,-248 120.5,-248 120.5,-231 17.5,-231"/>
<text text-anchor="start" x="40" y="-237" font-family="Times,serif" font-size="10.00"> object_ids </text>
<text text-anchor="start" x="19.5" y="-221" font-family="Times,serif" font-size="10.00"> object_id </text>
<text text-anchor="start" x="75.5" y="-221" font-family="Times,serif" font-size="10.00"> &#160;</text>
<text text-anchor="start" x="86.5" y="-221" font-family="Times,serif" font-size="10.00"> PK </text>
<text text-anchor="start" x="111.5" y="-221" font-family="Times,serif" font-size="10.00"> &#160;</text>
<text text-anchor="start" x="122.5" y="-221" font-family="Times,serif" font-size="10.00"> </text>
<polygon fill="none" stroke="black" points="8,-215 8,-249 129,-249 129,-215 8,-215"/>
</g>
<!-- orgs -->
<g id="node5" class="node">
<title>orgs</title>
<text text-anchor="start" x="850.5" y="-182" font-family="Times,serif" font-size="10.00"> </text>
<polygon fill="#e5e5e5" stroke="transparent" points="856.5,-176 856.5,-193 1007.5,-193 1007.5,-176 856.5,-176"/>
<polygon fill="none" stroke="black" points="856.5,-176 856.5,-193 1007.5,-193 1007.5,-176 856.5,-176"/>
<text text-anchor="start" x="917.5" y="-182" font-family="Times,serif" font-size="10.00"> orgs </text>
<text text-anchor="start" x="858.5" y="-166" font-family="Times,serif" font-size="10.00"> external_org_id </text>
<text text-anchor="start" x="948.5" y="-166" font-family="Times,serif" font-size="10.00"> &#160;</text>
<text text-anchor="start" x="959.5" y="-166" font-family="Times,serif" font-size="10.00"> &#160;</text>
<text text-anchor="start" x="984.5" y="-166" font-family="Times,serif" font-size="10.00"> &#160;</text>
<text text-anchor="start" x="1009.5" y="-166" font-family="Times,serif" font-size="10.00"> </text>
<text text-anchor="start" x="858.5" y="-151" font-family="Times,serif" font-size="10.00"> org_id </text>
<text text-anchor="start" x="948.5" y="-151" font-family="Times,serif" font-size="10.00"> &#160;</text>
<text text-anchor="start" x="959.5" y="-151" font-family="Times,serif" font-size="10.00"> PK </text>
<text text-anchor="start" x="984.5" y="-151" font-family="Times,serif" font-size="10.00"> FK </text>
<text text-anchor="start" x="1009.5" y="-151" font-family="Times,serif" font-size="10.00"> </text>
<polygon fill="none" stroke="black" points="847,-145.5 847,-194.5 1016,-194.5 1016,-145.5 847,-145.5"/>
</g>
<!-- orgs&#45;&gt;user_entity_ids -->
<g id="edge3" class="edge">
<title>orgs:rtcol0&#45;&gt;user_entity_ids:ltcol0</title>
<path fill="none" stroke="black" d="M1016.5,-185C1179.97,-185 1223.35,-185 1381.89,-185"/>
<polygon fill="black" stroke="black" points="1382,-188.5 1392,-185 1382,-181.5 1382,-188.5"/>
<text text-anchor="middle" x="1207" y="-188.8" font-family="Times,serif" font-size="14.00">orgs_org_id_fkey</text>
</g>
<!-- roles -->
<g id="node6" class="node">
<title>roles</title>
<text text-anchor="start" x="388.5" y="-209" font-family="Times,serif" font-size="10.00"> </text>
<polygon fill="#e5e5e5" stroke="transparent" points="394.5,-203 394.5,-220 500.5,-220 500.5,-203 394.5,-203"/>
<polygon fill="none" stroke="black" points="394.5,-203 394.5,-220 500.5,-220 500.5,-203 394.5,-203"/>
<text text-anchor="start" x="432" y="-209" font-family="Times,serif" font-size="10.00"> roles </text>
<text text-anchor="start" x="396.5" y="-193" font-family="Times,serif" font-size="10.00"> role_id </text>
<text text-anchor="start" x="441.5" y="-193" font-family="Times,serif" font-size="10.00"> &#160;</text>
<text text-anchor="start" x="452.5" y="-193" font-family="Times,serif" font-size="10.00"> PK </text>
<text text-anchor="start" x="477.5" y="-193" font-family="Times,serif" font-size="10.00"> &#160;</text>
<text text-anchor="start" x="502.5" y="-193" font-family="Times,serif" font-size="10.00"> </text>
<text text-anchor="start" x="396.5" y="-178" font-family="Times,serif" font-size="10.00"> org_id </text>
<text text-anchor="start" x="441.5" y="-178" font-family="Times,serif" font-size="10.00"> &#160;</text>
<text text-anchor="start" x="452.5" y="-178" font-family="Times,serif" font-size="10.00"> &#160;</text>
<text text-anchor="start" x="477.5" y="-178" font-family="Times,serif" font-size="10.00"> FK </text>
<text text-anchor="start" x="502.5" y="-178" font-family="Times,serif" font-size="10.00"> </text>
<polygon fill="none" stroke="black" points="385.5,-172.5 385.5,-221.5 509.5,-221.5 509.5,-172.5 385.5,-172.5"/>
</g>
<!-- roles&#45;&gt;orgs -->
<g id="edge5" class="edge">
<title>roles:rtcol0&#45;&gt;orgs:ltcol0</title>
<path fill="none" stroke="black" d="M509.5,-212C536.96,-212 543.64,-208.37 571,-206 690.3,-195.65 722.46,-185.59 837.25,-185.02"/>
<polygon fill="black" stroke="black" points="837.51,-188.52 847.5,-185 837.49,-181.52 837.51,-188.52"/>
<text text-anchor="middle" x="693" y="-209.8" font-family="Times,serif" font-size="14.00">roles_org_id_fkey</text>
</g>
<!-- roles&#45;&gt;user_entity_ids -->
<g id="edge4" class="edge">
<title>roles:rtcol0&#45;&gt;user_entity_ids:ltcol0</title>
<path fill="none" stroke="black" d="M509.5,-212C537.12,-212 543.45,-218.99 571,-221 679.16,-228.87 706.57,-222.67 815,-221 1059.98,-217.22 1134.29,-283.62 1366,-204 1375.31,-200.8 1377.34,-193.02 1382.35,-188.47"/>
<polygon fill="black" stroke="black" points="1383.78,-191.68 1392,-185 1381.41,-185.09 1383.78,-191.68"/>
<text text-anchor="middle" x="931.5" y="-236.8" font-family="Times,serif" font-size="14.00">roles_role_id_fkey</text>
</g>
<!-- test -->
<g id="node7" class="node">
<title>test</title>
<text text-anchor="start" x="29.5" y="-297" font-family="Times,serif" font-size="10.00"> </text>
<polygon fill="#e5e5e5" stroke="transparent" points="35.5,-291 35.5,-308 102.5,-308 102.5,-291 35.5,-291"/>
<polygon fill="none" stroke="black" points="35.5,-291 35.5,-308 102.5,-308 102.5,-291 35.5,-291"/>
<text text-anchor="start" x="56.5" y="-297" font-family="Times,serif" font-size="10.00"> test </text>
<text text-anchor="start" x="37.5" y="-281" font-family="Times,serif" font-size="10.00"> id </text>
<text text-anchor="start" x="57.5" y="-281" font-family="Times,serif" font-size="10.00"> &#160;</text>
<text text-anchor="start" x="68.5" y="-281" font-family="Times,serif" font-size="10.00"> PK </text>
<text text-anchor="start" x="93.5" y="-281" font-family="Times,serif" font-size="10.00"> &#160;</text>
<text text-anchor="start" x="104.5" y="-281" font-family="Times,serif" font-size="10.00"> </text>
<polygon fill="none" stroke="black" points="26,-275 26,-309 111,-309 111,-275 26,-275"/>
</g>
<!-- user_entity_permissions -->
<g id="node9" class="node">
<title>user_entity_permissions</title>
<text text-anchor="start" x="844.5" y="-56" font-family="Times,serif" font-size="10.00"> </text>
<polygon fill="#e5e5e5" stroke="transparent" points="850.5,-50 850.5,-67 1013.5,-67 1013.5,-50 850.5,-50"/>
<polygon fill="none" stroke="black" points="850.5,-50 850.5,-67 1013.5,-67 1013.5,-50 850.5,-50"/>
<text text-anchor="start" x="867" y="-56" font-family="Times,serif" font-size="10.00"> user_entity_permissions </text>
<text text-anchor="start" x="852.5" y="-40" font-family="Times,serif" font-size="10.00"> user_entity_id </text>
<text text-anchor="start" x="968.5" y="-40" font-family="Times,serif" font-size="10.00"> &#160;</text>
<text text-anchor="start" x="979.5" y="-40" font-family="Times,serif" font-size="10.00"> PK </text>
<text text-anchor="start" x="1004.5" y="-40" font-family="Times,serif" font-size="10.00"> &#160;</text>
<text text-anchor="start" x="1015.5" y="-40" font-family="Times,serif" font-size="10.00"> </text>
<text text-anchor="start" x="852.5" y="-25" font-family="Times,serif" font-size="10.00"> permission_type </text>
<text text-anchor="start" x="968.5" y="-25" font-family="Times,serif" font-size="10.00"> &#160;</text>
<text text-anchor="start" x="979.5" y="-25" font-family="Times,serif" font-size="10.00"> PK </text>
<text text-anchor="start" x="1004.5" y="-25" font-family="Times,serif" font-size="10.00"> &#160;</text>
<text text-anchor="start" x="1015.5" y="-25" font-family="Times,serif" font-size="10.00"> </text>
<text text-anchor="start" x="852.5" y="-10" font-family="Times,serif" font-size="10.00"> permissioned_object </text>
<text text-anchor="start" x="968.5" y="-10" font-family="Times,serif" font-size="10.00"> &#160;</text>
<text text-anchor="start" x="979.5" y="-10" font-family="Times,serif" font-size="10.00"> PK </text>
<text text-anchor="start" x="1004.5" y="-10" font-family="Times,serif" font-size="10.00"> &#160;</text>
<text text-anchor="start" x="1015.5" y="-10" font-family="Times,serif" font-size="10.00"> </text>
<polygon fill="none" stroke="black" points="841,-4 841,-68 1022,-68 1022,-4 841,-4"/>
</g>
<!-- user_entity_permissions&#45;&gt;user_entity_ids -->
<g id="edge6" class="edge">
<title>user_entity_permissions:rtcol0&#45;&gt;user_entity_ids:ltcol0</title>
<path fill="none" stroke="black" d="M1022.5,-59C1175.43,-59 1248.47,18.84 1366,-79 1400.08,-107.37 1353.05,-172.44 1381.76,-183.41"/>
<polygon fill="black" stroke="black" points="1381.58,-186.93 1392,-185 1382.65,-180.01 1381.58,-186.93"/>
<text text-anchor="middle" x="1207" y="-82.8" font-family="Times,serif" font-size="14.00">user_entity_permissions_user_entity_id_fkey</text>
</g>
<!-- user_roles -->
<g id="node10" class="node">
<title>user_roles</title>
<text text-anchor="start" x="15.5" y="-176" font-family="Times,serif" font-size="10.00"> </text>
<polygon fill="#e5e5e5" stroke="transparent" points="21.5,-170 21.5,-187 116.5,-187 116.5,-170 21.5,-170"/>
<polygon fill="none" stroke="black" points="21.5,-170 21.5,-187 116.5,-187 116.5,-170 21.5,-170"/>
<text text-anchor="start" x="39.5" y="-176" font-family="Times,serif" font-size="10.00"> user_roles </text>
<text text-anchor="start" x="23.5" y="-160" font-family="Times,serif" font-size="10.00"> role_id </text>
<text text-anchor="start" x="71.5" y="-160" font-family="Times,serif" font-size="10.00"> &#160;</text>
<text text-anchor="start" x="82.5" y="-160" font-family="Times,serif" font-size="10.00"> PK </text>
<text text-anchor="start" x="107.5" y="-160" font-family="Times,serif" font-size="10.00"> &#160;</text>
<text text-anchor="start" x="118.5" y="-160" font-family="Times,serif" font-size="10.00"> </text>
<text text-anchor="start" x="23.5" y="-145" font-family="Times,serif" font-size="10.00"> user_id </text>
<text text-anchor="start" x="71.5" y="-145" font-family="Times,serif" font-size="10.00"> &#160;</text>
<text text-anchor="start" x="82.5" y="-145" font-family="Times,serif" font-size="10.00"> PK </text>
<text text-anchor="start" x="107.5" y="-145" font-family="Times,serif" font-size="10.00"> &#160;</text>
<text text-anchor="start" x="118.5" y="-145" font-family="Times,serif" font-size="10.00"> </text>
<polygon fill="none" stroke="black" points="12,-139.5 12,-188.5 125,-188.5 125,-139.5 12,-139.5"/>
</g>
<!-- user_roles&#45;&gt;roles -->
<g id="edge7" class="edge">
<title>user_roles:rtcol0&#45;&gt;roles:ltcol0</title>
<path fill="none" stroke="black" d="M125.5,-179C238.57,-179 267.36,-210.09 375.49,-211.92"/>
<polygon fill="black" stroke="black" points="375.47,-215.42 385.5,-212 375.53,-208.42 375.47,-215.42"/>
<text text-anchor="middle" x="239.5" y="-210.8" font-family="Times,serif" font-size="14.00">user_roles_role_id_fkey</text>
</g>
<!-- users -->
<g id="node11" class="node">
<title>users</title>
<text text-anchor="start" x="363.5" y="-134" font-family="Times,serif" font-size="10.00"> </text>
<polygon fill="#e5e5e5" stroke="transparent" points="369.5,-128 369.5,-145 525.5,-145 525.5,-128 369.5,-128"/>
<polygon fill="none" stroke="black" points="369.5,-128 369.5,-145 525.5,-145 525.5,-128 369.5,-128"/>
<text text-anchor="start" x="430.5" y="-134" font-family="Times,serif" font-size="10.00"> users </text>
<text text-anchor="start" x="371.5" y="-118" font-family="Times,serif" font-size="10.00"> email </text>
<text text-anchor="start" x="466.5" y="-118" font-family="Times,serif" font-size="10.00"> &#160;</text>
<text text-anchor="start" x="477.5" y="-118" font-family="Times,serif" font-size="10.00"> &#160;</text>
<text text-anchor="start" x="502.5" y="-118" font-family="Times,serif" font-size="10.00"> &#160;</text>
<text text-anchor="start" x="527.5" y="-118" font-family="Times,serif" font-size="10.00"> </text>
<text text-anchor="start" x="371.5" y="-103" font-family="Times,serif" font-size="10.00"> active_org_id </text>
<text text-anchor="start" x="466.5" y="-103" font-family="Times,serif" font-size="10.00"> &#160;</text>
<text text-anchor="start" x="477.5" y="-103" font-family="Times,serif" font-size="10.00"> &#160;</text>
<text text-anchor="start" x="502.5" y="-103" font-family="Times,serif" font-size="10.00"> FK </text>
<text text-anchor="start" x="527.5" y="-103" font-family="Times,serif" font-size="10.00"> </text>
<text text-anchor="start" x="371.5" y="-88" font-family="Times,serif" font-size="10.00"> user_id </text>
<text text-anchor="start" x="466.5" y="-88" font-family="Times,serif" font-size="10.00"> &#160;</text>
<text text-anchor="start" x="477.5" y="-88" font-family="Times,serif" font-size="10.00"> PK </text>
<text text-anchor="start" x="502.5" y="-88" font-family="Times,serif" font-size="10.00"> &#160;</text>
<text text-anchor="start" x="527.5" y="-88" font-family="Times,serif" font-size="10.00"> </text>
<text text-anchor="start" x="371.5" y="-73" font-family="Times,serif" font-size="10.00"> external_user_id </text>
<text text-anchor="start" x="466.5" y="-73" font-family="Times,serif" font-size="10.00"> &#160;</text>
<text text-anchor="start" x="477.5" y="-73" font-family="Times,serif" font-size="10.00"> &#160;</text>
<text text-anchor="start" x="502.5" y="-73" font-family="Times,serif" font-size="10.00"> &#160;</text>
<text text-anchor="start" x="527.5" y="-73" font-family="Times,serif" font-size="10.00"> </text>
<polygon fill="none" stroke="black" points="360.5,-67.5 360.5,-146.5 534.5,-146.5 534.5,-67.5 360.5,-67.5"/>
</g>
<!-- user_roles&#45;&gt;users -->
<g id="edge8" class="edge">
<title>user_roles:rtcol0&#45;&gt;users:ltcol0</title>
<path fill="none" stroke="black" d="M125.5,-179C141.1,-179 140.31,-165.23 155,-160 238.29,-130.37 266.45,-136.46 350.27,-136.97"/>
<polygon fill="black" stroke="black" points="350.49,-140.47 360.5,-137 350.51,-133.47 350.49,-140.47"/>
<text text-anchor="middle" x="239.5" y="-163.8" font-family="Times,serif" font-size="14.00">user_roles_user_id_fkey</text>
</g>
<!-- users&#45;&gt;orgs -->
<g id="edge9" class="edge">
<title>users:rtcol0&#45;&gt;orgs:ltcol0</title>
<path fill="none" stroke="black" d="M534.5,-137C659.83,-137 695.88,-127.05 815,-166 826.93,-169.9 829.83,-178.64 837.6,-182.76"/>
<polygon fill="black" stroke="black" points="836.97,-186.21 847.5,-185 838.52,-179.38 836.97,-186.21"/>
<text text-anchor="middle" x="693" y="-169.8" font-family="Times,serif" font-size="14.00">users_active_org_id_fkey</text>
</g>
<!-- users&#45;&gt;user_entity_ids -->
<g id="edge10" class="edge">
<title>users:rtcol0&#45;&gt;user_entity_ids:ltcol0</title>
<path fill="none" stroke="black" d="M534.5,-137C550.94,-137 554.65,-132.74 571,-131 686.93,-118.64 716.45,-120.89 833,-118 920.53,-115.83 942.81,-110 1030,-118 1039.29,-118.85 1324.29,-173.89 1382.07,-183.56"/>
<polygon fill="black" stroke="black" points="1381.6,-187.03 1392,-185 1382.61,-180.1 1381.6,-187.03"/>
<text text-anchor="middle" x="931.5" y="-121.8" font-family="Times,serif" font-size="14.00">users_user_id_fkey</text>
</g>
</g>
</svg>
